<?xml version="1.0" encoding="UTF-8" standalone="no"?>
<!-- Created with Inkscape (http://www.inkscape.org/) -->

<svg
   version="1.1"
   id="svg2"
   xml:space="preserve"
   width="453.54266"
   height="113.38547"
   viewBox="0 0 453.54266 113.38547"
   sodipodi:docname="FAULHABER_Logo_2c_positiv.ai"
   xmlns:inkscape="http://www.inkscape.org/namespaces/inkscape"
   xmlns:sodipodi="http://sodipodi.sourceforge.net/DTD/sodipodi-0.dtd"
   xmlns="http://www.w3.org/2000/svg"
   xmlns:svg="http://www.w3.org/2000/svg"><defs
     id="defs6"><clipPath
       clipPathUnits="userSpaceOnUse"
       id="clipPath120"><path
         d="M 0,85.039 H 340.157 V 0 H 0 Z"
         id="path118" /></clipPath></defs><sodipodi:namedview
     id="namedview4"
     pagecolor="#ffffff"
     bordercolor="#666666"
     borderopacity="1.0"
     inkscape:pageshadow="2"
     inkscape:pageopacity="0.0"
     inkscape:pagecheckerboard="0" /><g
     id="g8"
     inkscape:groupmode="layer"
     inkscape:label="FAULHABER_Logo_2c_positiv"
     transform="matrix(1.3333333,0,0,-1.3333333,0,113.38547)"><g
       id="g10"
       transform="translate(29.4121,29.9756)"><path
         d="M 0,0 30.536,23.233 32.117,22.023 3.171,0 Z"
         style="fill:#2f97da;fill-opacity:1;fill-rule:nonzero;stroke:none"
         id="path12" /></g><g
       id="g14"
       transform="translate(90.6255,51.2275)"><path
         d="M 0,0 -2.581,1.977 H 0 Z"
         style="fill:#2f97da;fill-opacity:1;fill-rule:nonzero;stroke:none"
         id="path16" /></g><g
       id="g18"
       transform="translate(84.9697,53.2041)"><path
         d="M 0,0 5.656,-4.33 V -6.75 L -3.161,0 Z"
         style="fill:#2f97da;fill-opacity:1;fill-rule:nonzero;stroke:none"
         id="path20" /></g><g
       id="g22"
       transform="translate(78.7354,53.2041)"><path
         d="m 0,0 11.89,-9.103 v -2.42 L -3.161,0 Z"
         style="fill:#2f97da;fill-opacity:1;fill-rule:nonzero;stroke:none"
         id="path24" /></g><g
       id="g26"
       transform="translate(72.4673,53.2041)"><path
         d="m 0,0 18.158,-13.9 v -2.42 L -3.161,0 Z"
         style="fill:#2f97da;fill-opacity:1;fill-rule:nonzero;stroke:none"
         id="path28" /></g><g
       id="g30"
       transform="translate(66.0981,53.2041)"><path
         d="m 0,0 24.527,-18.777 v -2.42 L -3.161,0 Z"
         style="fill:#2f97da;fill-opacity:1;fill-rule:nonzero;stroke:none"
         id="path32" /></g><g
       id="g34"
       transform="translate(56.6074,53.2124)"><path
         d="M 0,0 -1.583,-1.208 -3.159,0 Z"
         style="fill:#2f97da;fill-opacity:1;fill-rule:nonzero;stroke:none"
         id="path36" /></g><g
       id="g38"
       transform="translate(51.7773,49.5278)"><path
         d="m 0,0 -4.806,3.682 h 3.16 L 1.583,1.208 Z"
         style="fill:#2f97da;fill-opacity:1;fill-rule:nonzero;stroke:none"
         id="path40" /></g><g
       id="g42"
       transform="translate(48.5303,47.0508)"><path
         d="m 0,0 -8.04,6.159 h 3.161 L 1.583,1.208 Z"
         style="fill:#2f97da;fill-opacity:1;fill-rule:nonzero;stroke:none"
         id="path44" /></g><g
       id="g46"
       transform="translate(45.2832,44.5737)"><path
         d="m 0,0 -11.273,8.636 h 3.161 L 1.583,1.208 Z"
         style="fill:#2f97da;fill-opacity:1;fill-rule:nonzero;stroke:none"
         id="path48" /></g><g
       id="g50"
       transform="translate(42.0361,42.0967)"><path
         d="m 0,0 -12.973,9.936 v 1.177 h 1.625 L 1.583,1.208 Z"
         style="fill:#2f97da;fill-opacity:1;fill-rule:nonzero;stroke:none"
         id="path52" /></g><g
       id="g54"
       transform="translate(38.7886,39.6201)"><path
         d="M 0,0 -9.726,7.445 V 9.864 L 1.583,1.207 Z"
         style="fill:#2f97da;fill-opacity:1;fill-rule:nonzero;stroke:none"
         id="path56" /></g><g
       id="g58"
       transform="translate(35.5415,37.1436)"><path
         d="m 0,0 -6.478,4.958 v 2.42 L 1.583,1.207 Z"
         style="fill:#2f97da;fill-opacity:1;fill-rule:nonzero;stroke:none"
         id="path60" /></g><g
       id="g62"
       transform="translate(32.2944,34.667)"><path
         d="m 0,0 -3.231,2.473 v 2.42 L 1.583,1.207 Z"
         style="fill:#2f97da;fill-opacity:1;fill-rule:nonzero;stroke:none"
         id="path64" /></g><g
       id="g66"
       transform="translate(30.6309,33.3975)"><path
         d="M 0,0 -1.568,-1.195 V 1.199 Z"
         style="fill:#2f97da;fill-opacity:1;fill-rule:nonzero;stroke:none"
         id="path68" /></g><g
       id="g70"
       transform="translate(63.1416,50.7646)"><path
         d="m 0,0 1.581,-1.21 -25.705,-19.579 h -3.17 z"
         style="fill:#2f97da;fill-opacity:1;fill-rule:nonzero;stroke:none"
         id="path72" /></g><g
       id="g74"
       transform="translate(42.2075,29.9756)"><path
         d="M 0,0 24.128,18.345 25.709,17.134 3.222,0 Z"
         style="fill:#2f97da;fill-opacity:1;fill-rule:nonzero;stroke:none"
         id="path76" /></g><g
       id="g78"
       transform="translate(48.6665,29.9756)"><path
         d="M 0,0 20.864,15.897 22.446,14.688 3.17,0 Z"
         style="fill:#2f97da;fill-opacity:1;fill-rule:nonzero;stroke:none"
         id="path80" /></g><g
       id="g82"
       transform="translate(55.0737,29.9756)"><path
         d="M 0,0 17.653,13.452 19.234,12.241 3.171,0 Z"
         style="fill:#2f97da;fill-opacity:1;fill-rule:nonzero;stroke:none"
         id="path84" /></g><g
       id="g86"
       transform="translate(61.481,29.9756)"><path
         d="M 0,0 14.442,11.004 16.023,9.795 3.17,0 Z"
         style="fill:#2f97da;fill-opacity:1;fill-rule:nonzero;stroke:none"
         id="path88" /></g><g
       id="g90"
       transform="translate(80.7002,37.3232)"><path
         d="m 0,0 -9.643,-7.349 h -3.17 l 11.232,8.56 z"
         style="fill:#2f97da;fill-opacity:1;fill-rule:nonzero;stroke:none"
         id="path92" /></g><g
       id="g94"
       transform="translate(74.2896,29.9756)"><path
         d="M 0,0 8.023,6.112 9.604,4.901 3.17,0 Z"
         style="fill:#2f97da;fill-opacity:1;fill-rule:nonzero;stroke:none"
         id="path96" /></g><g
       id="g98"
       transform="translate(80.6938,29.9756)"><path
         d="M 0,0 4.812,3.668 6.393,2.459 3.169,0 Z"
         style="fill:#2f97da;fill-opacity:1;fill-rule:nonzero;stroke:none"
         id="path100" /></g><g
       id="g102"
       transform="translate(87.0986,29.9756)"><path
         d="M 0,0 1.604,1.223 3.206,-0.002 Z"
         style="fill:#2f97da;fill-opacity:1;fill-rule:nonzero;stroke:none"
         id="path104" /></g><g
       id="g106"
       transform="translate(108.7383,38.751)"><path
         d="M 0,0 V -8.844 H -6.455 V 14.458 H 10.038 V 9.939 H 0 V 4.518 H 9.328 L 9.328,0 Z"
         style="fill:#0b335e;fill-opacity:1;fill-rule:nonzero;stroke:none"
         id="path108" /></g><g
       id="g110"
       transform="translate(128.2578,38.9775)"><path
         d="M 0,0 H 6.229 L 3.26,9.682 Z m -3.163,-9.07 h -6.455 l 9.199,23.301 H 7.455 L 16.654,-9.07 H 9.359 L 7.81,-4.521 h -9.456 z"
         style="fill:#0b335e;fill-opacity:1;fill-rule:nonzero;stroke:none"
         id="path112" /></g><g
       id="g114"><g
         id="g116"
         clip-path="url(#clipPath120)"><g
           id="g122"
           transform="translate(161.874,53.2095)"><path
             d="m 0,0 h 6.455 v -14.75 c -0.064,-6.486 -5.261,-9.037 -11.135,-9.037 -5.874,0 -11.069,2.551 -11.134,9.037 V 0 h 6.455 v -14.428 c 0.097,-2.968 1.646,-4.84 4.679,-4.84 3.034,0 4.583,1.872 4.68,4.84 z"
             style="fill:#0b335e;fill-opacity:1;fill-rule:nonzero;stroke:none"
             id="path124" /></g><g
           id="g126"
           transform="translate(189.6553,29.9072)"><path
             d="m 0,0 h -16.236 v 23.303 h 6.455 V 4.52 H 0 Z"
             style="fill:#0b335e;fill-opacity:1;fill-rule:nonzero;stroke:none"
             id="path128" /></g><g
           id="g130"
           transform="translate(198.3467,29.9072)"><path
             d="M 0,0 H -6.453 V 23.303 H 0.033 V 14.071 H 7.94 v 9.232 h 6.456 V 0 H 7.94 V 9.555 H 0 Z"
             style="fill:#0b335e;fill-opacity:1;fill-rule:nonzero;stroke:none"
             id="path132" /></g><g
           id="g134"
           transform="translate(225.4541,38.9775)"><path
             d="m 0,0 h 6.229 l -2.97,9.682 z m -3.163,-9.07 h -6.456 l 9.2,23.301 H 7.455 L 16.652,-9.07 H 9.358 L 7.81,-4.521 h -9.456 z"
             style="fill:#0b335e;fill-opacity:1;fill-rule:evenodd;stroke:none"
             id="path136" /></g><g
           id="g138"
           transform="translate(251.7148,48.6909)"><path
             d="m 0,0 v -4.744 l 3.292,0.032 c 1.744,0 2.873,0.678 2.873,2.453 C 6.165,-0.936 5.036,0 3.519,0 Z m 0,-14.265 h 3.777 c 1.614,0 2.807,0.968 2.807,2.42 0,1.291 -0.903,2.518 -2.355,2.615 H 0 Z m 4.487,-4.519 H -6.454 V 4.518 H 4.713 c 4.389,-0.032 8.069,-2 8.069,-6.099 0,-2.873 -2.421,-4.616 -5.036,-5.1 3.099,-0.483 5.617,-2.452 5.617,-5.777 0,-6.777 -8.65,-6.326 -8.876,-6.326"
             style="fill:#0b335e;fill-opacity:1;fill-rule:evenodd;stroke:none"
             id="path140" /></g><g
           id="g142"
           transform="translate(287.6904,29.9072)"><path
             d="M 0,0 H -17.75 V 23.303 H 0 V 18.784 H -11.297 V 13.976 H -0.903 V 9.457 H -11.297 V 4.52 L 0,4.52 Z"
             style="fill:#0b335e;fill-opacity:1;fill-rule:nonzero;stroke:none"
             id="path144" /></g><g
           id="g146"
           transform="translate(298.4375,38.8154)"><path
             d="M 0,0 V -8.908 H -6.454 V 14.395 H 4.325 c 3.939,0 9.037,-1.065 9.037,-6.003 0,-3.487 -2.678,-5.327 -5.937,-5.713 4.131,-0.226 4.904,-2.325 5.324,-5.94 0.161,-1.934 0.517,-3.774 1.064,-5.647 H 6.812 C 6.455,-7.293 6.263,-5.615 6.102,-3.97 5.843,-1.162 5.714,0 2.421,0 Z m 0,4.519 h 2.519 c 2.064,0 4.065,0.29 4.065,2.677 0,2.388 -2.001,2.679 -4.065,2.679 H 0 Z"
             style="fill:#0b335e;fill-opacity:1;fill-rule:evenodd;stroke:none"
             id="path148" /></g></g></g></g></svg>
