<svg xmlns="http://www.w3.org/2000/svg" viewBox="0 0 110 110" fill="#262640">
    <path d="M60.7824 54.9392C60.7824 58.0638 58.2494 60.5968 55.1247 60.5968H29.4804C26.3557 60.5968 23.8227 58.0638 23.8227 54.9392L23.8227 29.2948C23.8227 26.1702 26.3557 23.6372 29.4804 23.6372L55.1247 23.6372C58.2494 23.6372 60.7824 26.1702 60.7824 29.2948V54.9392V54.9392ZM83.8629 68.2082V16.0258C83.8629 7.4808 76.9357 0.556641 68.3937 0.556641L16.2114 0.556641C7.66635 0.556641 0.742188 7.48388 0.742188 16.0258L0.742188 68.2082C0.742188 76.7532 7.66943 83.6774 16.2114 83.6774H68.3937C76.9387 83.6774 83.8629 76.7532 83.8629 68.2082Z" />
</svg>