<svg viewBox="0 0 129 69" version="1.1" xmlns="http://www.w3.org/2000/svg" xmlns:xlink="http://www.w3.org/1999/xlink">
    <defs>
        <polygon id="path-1" points="0 69 129 69 129 0 0 0"></polygon>
    </defs>
    <g id="Symbols" stroke="none" stroke-width="1" fill="none" fill-rule="evenodd">
        <g id="Footer/Desktop/Default" transform="translate(-155.000000, -490.000000)">
            <g id="Group-159" transform="translate(155.000000, 490.000000)">
                <path d="M37.2475581,15.5618312 L47.0671412,23.2528147 L46.0633145,17.4651531 L37.2475581,15.5618312 Z M47.5179962,24 L36,14.9788778 L46.1668763,17.173909 L50.7101073,14 L50.8955551,14.2479762 L46.5748615,17.2669582 L54,18.973481 L53.9263026,19.2712385 L46.3976023,17.5405229 L47.5179962,24 Z" id="Fill-1" fill="#000000"></path>
                <g id="Group-158">
                    <path d="M58.9902108,17.6997199 C58.9778433,17.6997199 58.9650002,17.6982881 58.9521571,17.6949473 L54.5407867,16.5953457 L50.0761412,15.0471219 C49.9943259,15.0184865 49.9510398,14.9292393 49.9791044,14.847151 C50.0076447,14.7655399 50.0965951,14.7221095 50.1784104,14.7502677 L54.6297372,16.2941961 L59.0277888,17.3904569 C59.1115068,17.4114563 59.1628792,17.4964081 59.1419497,17.5804055 C59.1243499,17.6519941 59.0601344,17.6997199 58.9902108,17.6997199" id="Fill-2" fill="#000000"></path>
                    <polygon id="Fill-4" fill="#000000" points="36.165008 16.2220348 36.0803386 15.9194534 45.3987282 13.2964455 50.5236047 10.8543181 50.6577438 11.1382864 45.5081325 13.5894817"></polygon>
                    <path d="M58.6639006,32.605144 C58.6106255,32.605144 58.5583017,32.5774631 58.5292858,32.5283055 L52.3978901,22.1942459 C52.3536527,22.1197937 52.3779119,22.0233877 52.4521166,21.9790027 C52.5267969,21.935095 52.6224067,21.9594352 52.6666441,22.0334101 L58.7980398,32.3674697 C58.8422772,32.4423992 58.818018,32.5388052 58.7438133,32.5831902 C58.7186028,32.5979851 58.6910139,32.605144 58.6639006,32.605144" id="Fill-6" fill="#000000"></path>
                    <path d="M56.1593991,34.5996991 C56.113259,34.5996991 56.0675947,34.579177 56.0366761,34.5400419 C55.9829253,34.4722713 55.9943414,34.373479 56.0618866,34.3195489 L58.566293,32.3250892 C58.6338383,32.2716364 58.7323021,32.2826133 58.7860529,32.3503839 C58.8398037,32.4186317 58.8283876,32.5169468 58.7608423,32.5713542 L56.2569116,34.5658138 C56.2278957,34.5887222 56.1936474,34.5996991 56.1593991,34.5996991" id="Fill-8" fill="#000000"></path>
                    <path d="M0.898018776,0.984487052 L5.56101897,22.4300589 L12.15001,41.0798556 L19.6941478,55.059209 L28.4845429,65.5889442 L33.6722079,54.6258591 L41.7914317,36.7687874 L41.8323393,36.74397 L52.6823888,30.0843169 L52.7404206,30.1792912 L52.8864515,30.0628403 L56.1847524,34.2221406 L58.5193443,32.3627449 L59.6076789,25.9140397 L52.1329891,21.983823 L53.1376056,19.8857985 L56.2508706,19.1870933 L58.8604002,17.4403303 L60.1727758,13.8322626 L56.2741785,11.9566401 L49.937293,15.1709703 L50.4224771,11.0842131 L37.4404715,4.11863795 L19.0909973,2.4969165 L0.898018776,0.984487052 Z M28.5577962,66.1659487 L19.4363342,55.2343625 L11.8650832,41.2072834 L5.26039506,22.5159653 L0.501785056,0.636566235 L19.1176348,2.18431275 L37.5318002,3.81128403 L37.5598648,3.82655627 L50.7583006,10.9081051 L50.3173539,14.6264193 L56.2703731,11.606333 L60.5647285,13.6723813 L59.1191651,17.6445966 L56.3474317,19.4872883 L53.3540358,20.1587898 L52.5458713,21.8463728 L59.9539672,25.7417497 L58.8080764,32.5336031 L56.1343313,34.6631267 L52.7584961,30.4055113 L42.0364021,36.9868941 L33.9561834,54.7580594 L28.5577962,66.1659487 Z" id="Fill-10" fill="#000000"></path>
                    <polygon id="Fill-12" fill="#000000" points="5.9708093 22.2108068 5.68350418 22.0857653 11.4058231 8.85522908 0.608573135 1.04299884 0.791230697 0.78814326 11.7930191 8.74832337"></polygon>
                    <polygon id="Fill-14" fill="#000000" points="17.025302 22.7269609 11.4542464 8.86071755 11.7444055 8.74331217 17.0733447 22.0063019 26.5553651 5.25455885 26.8274488 5.40966758"></polygon>
                    <polygon id="Fill-16" fill="#000000" points="17.3897133 22.5237923 5.44419424 22.5004067 5.44466991 22.1863712 17.390189 22.2097568"></polygon>
                    <polygon id="Fill-18" fill="#000000" points="11.6758614 9.07853793 11.4708473 8.84086363 19.2951552 2.04853295 26.7056295 5.45567522 26.5752957 5.74155254 19.3474789 2.41793036"></polygon>
                    <polygon id="Fill-20" fill="#000000" points="5.75318994 22.3338438 5.58670519 22.067534 14.5897251 16.4301668 25.7304094 15.3544281 37.3762559 3.85299635 37.5960158 4.07683018 25.8702566 15.6565322 14.656319 16.7394298"></polygon>
                    <polygon id="Fill-22" fill="#000000" points="36.1106388 16.2273801 25.7096226 15.4255872 25.7338818 15.1125062 36.134898 15.9142991"></polygon>
                    <polygon id="Fill-24" fill="#000000" points="37.7984613 28.1084703 37.6895327 27.8140023 46.6040779 24.4951527 46.7125308 24.7896207"></polygon>
                    <polygon id="Fill-26" fill="#000000" points="37.549733 28.1907495 35.9676522 16.0913139 36.2777895 16.0502698 37.8598704 28.1497053"></polygon>
                    <polygon id="Fill-28" fill="#000000" points="31.8019657 27.6412351 16.7103604 22.4362633 16.8121539 22.139409 31.9037593 27.3443808"></polygon>
                    <polygon id="Fill-30" fill="#000000" points="37.53161 28.011062 31.7579186 27.4125809 31.7902642 27.0999772 37.5634799 27.6989355"></polygon>
                    <polygon id="Fill-32" fill="#000000" points="33.8196183 43.6004918 31.7761368 27.0391746 32.0867498 27.0005167 34.1302313 43.5623112"></polygon>
                    <polygon id="Fill-34" fill="#000000" points="34.1679995 43.9169613 24.0281265 31.3774942 24.2711943 31.1794323 34.4110673 43.7193767"></polygon>
                    <polygon id="Fill-36" fill="#000000" points="12.0469797 41.019387 11.8533817 40.7721676 24.1313946 31.0762014 24.3249926 31.3229436"></polygon>
                    <polygon id="Fill-38" fill="#000000" points="12.1008732 40.8595057 11.7992979 40.7745539 16.9246501 22.4029984 17.2262253 22.4879503"></polygon>
                    <polygon id="Fill-40" fill="#000000" points="29.8663188 50.9145605 29.5947108 50.7589745 33.7606351 43.4249564 34.0322431 43.5805424"></polygon>
                    <polygon id="Fill-42" fill="#000000" points="19.6444878 55.1730349 19.5208134 54.8847713 29.5902871 50.5350452 29.7134858 50.8233088"></polygon>
                    <polygon id="Fill-44" fill="#000000" points="33.7032692 54.8039239 29.4626646 50.5534674 29.6838515 50.3315426 33.9244561 54.5819991"></polygon>
                    <polygon id="Fill-46" fill="#000000" points="29.4178089 50.7369729 11.7161982 40.7169489 11.8698399 40.4434802 29.5714505 50.4639816"></polygon>
                    <polygon id="Fill-48" fill="#000000" points="34.0730081 43.3883985 33.8770317 43.1430881 41.8159763 36.7554719 42.0119526 37.000305"></polygon>
                    <polygon id="Fill-50" fill="#000000" points="34.1113471 43.8157827 11.9293939 40.8147867 11.9712529 40.5036147 34.1532062 43.5046107"></polygon>
                    <polygon id="Fill-52" fill="#000000" points="33.8918727 54.6175071 33.5788813 54.6108254 33.8186194 43.1838459 34.1316107 43.1905275"></polygon>
                    <polygon id="Fill-54" fill="#000000" points="41.8681573 37.0279382 32.9155585 34.2870476 33.0068873 33.9868526 41.9594861 36.7277432"></polygon>
                    <polygon id="Fill-56" fill="#000000" points="32.9186979 34.2879067 23.9504019 31.7446008 24.0350713 31.4429739 33.003843 33.9858026"></polygon>
                    <polygon id="Fill-58" fill="#000000" points="24.1838136 32.0854582 16.6382487 22.4639442 16.8841705 22.2697004 24.430211 31.8912143"></polygon>
                    <polygon id="Fill-60" fill="#000000" points="16.8606248 22.6011558 16.8187658 22.2899838 28.5692599 20.7021477 28.6111189 21.0133196"></polygon>
                    <polygon id="Fill-62" fill="#000000" points="28.7421662 20.989934 28.5737787 20.725056 36.0384795 15.9386392 36.206867 16.2030399"></polygon>
                    <polygon id="Fill-64" fill="#000000" points="35.9935762 16.1595618 31.6269189 9.76192314 26.4906263 5.77157205 26.681846 5.52292082 31.870938 9.56386122 36.2518654 15.9820219"></polygon>
                    <polygon id="Fill-66" fill="#000000" points="36.2783127 16.0884981 35.9672241 16.053181 37.3304964 3.94754109 37.6415851 3.98285815"></polygon>
                    <polygon id="Fill-68" fill="#000000" points="11.6068415 9.27077731 11.539772 8.96390065 26.6313773 5.65173265 26.6984469 5.95860931"></polygon>
                    <polygon id="Fill-70" fill="#000000" points="41.9283297 37.2805507 37.5630994 27.8819161 37.8465991 27.7492385 41.8993138 36.4754171 44.4774492 29.6907225 44.7699867 29.8028781"></polygon>
                    <polygon id="Fill-72" fill="#000000" points="52.7549285 30.3752054 44.6147753 29.9036749 37.7047066 28.1130042 37.7831922 27.8094684 44.662818 29.5948892 52.773004 30.0616472"></polygon>
                    <polygon id="Fill-74" fill="#000000" points="31.8412086 27.3928225 31.5500981 27.2778034 35.9771656 16.0130914 36.2682761 16.1281105"></polygon>
                    <polygon id="Fill-76" fill="#000000" points="24.2232942 31.5352756 24.0758363 31.2579889 31.8183288 27.1177789 31.9657867 27.3950656"></polygon>
                    <polygon id="Fill-78" fill="#000000" points="19.4068902 55.307717 19.2080599 55.0652702 33.6789149 43.1448062 33.8777452 43.3867758"></polygon>
                    <polygon id="Fill-80" fill="#000000" points="31.6328648 27.4815924 25.8553681 15.3363401 26.1379165 15.2012761 31.9154132 27.3465285"></polygon>
                    <polygon id="Fill-82" fill="#000000" points="46.7217112 24.786089 46.5947071 24.4987799 52.4178683 21.9077482 52.5443967 22.1950573"></polygon>
                    <polygon id="Fill-84" fill="#000000" points="52.8469233 30.3516766 52.6809142 30.0848896 59.6980088 25.6945966 59.8635422 25.9613836"></polygon>
                    <path d="M56.4109814,19.4744978 C56.3591332,19.4744978 56.3087121,19.4487259 56.2787449,19.4019547 L54.4469369,16.5274319 C54.420775,16.4863878 54.415067,16.4357985 54.4312398,16.3899817 L56.1246276,11.6059512 C56.1536435,11.5243401 56.2435453,11.4823415 56.324885,11.5104997 C56.4062246,11.5400896 56.4485593,11.6298141 56.4200191,11.7114251 L54.7518418,16.4229125 L56.5427421,19.2330055 C56.5893579,19.3060259 56.5679527,19.4029092 56.4951751,19.4496804 C56.4690132,19.4663845 56.4399973,19.4744978 56.4109814,19.4744978" id="Fill-86" fill="#000000"></path>
                    <polygon id="Fill-88" fill="#000000" points="47.0794156 33.7146248 44.4480051 29.7653179 46.5128918 24.584209 46.8035266 24.7006599 44.7995258 29.7280918 47.3396075 33.5404258"></polygon>
                    <polygon id="Fill-90" fill="#000000" points="45.4249853 18.1967837 45.2860894 13.5067729 37.3666474 4.06613961 37.6059097 3.86378237 45.595751 13.388413 45.7375009 18.1872385"></polygon>
                    <mask id="mask-2" fill="white">
                        <use xlink:href="#path-1"></use>
                    </mask>
                    <g id="Clip-92"></g>
                    <path d="M46.5447617,45.4400813 L46.5447617,45.1265231 C46.5447617,44.9900274 46.6127826,44.9213023 46.7488245,44.9213023 L47.517984,44.9213023 C47.6545015,44.9213023 47.7225225,44.9900274 47.7225225,45.1265231 L47.7225225,45.3436753 C47.7225225,45.6810964 47.7962514,45.9244978 47.9446607,46.072925 C48.0925943,46.2218293 48.3389917,46.2958043 48.683853,46.2958043 L49.5129471,46.2958043 C49.856857,46.2958043 50.1056328,46.217534 50.2578475,46.0609935 C50.4095864,45.9039758 50.4861694,45.6486429 50.4861694,45.294995 L50.4861694,45.0177083 C50.4861694,44.7604665 50.3881812,44.557632 50.1917292,44.4092048 C49.9952772,44.2603005 49.7531608,44.1638944 49.4649043,44.1195095 C49.1761722,44.0756018 48.8598512,44.0135583 48.5154656,43.9329017 C48.1706043,43.8527224 47.8542832,43.7596572 47.5660268,43.655615 C47.2777703,43.5510956 47.0351782,43.3539882 46.8392019,43.0642928 C46.6427499,42.7750747 46.5447617,42.4056773 46.5447617,41.9551461 L46.5447617,41.449253 C46.5447617,40.8622261 46.7107708,40.4021497 47.0432646,40.0685466 C47.3757585,39.7354208 47.8343051,39.5683806 48.4193801,39.5683806 L49.6932263,39.5683806 C50.285912,39.5683806 50.748264,39.7354208 51.0807578,40.0685466 C51.4132517,40.4021497 51.5797364,40.8622261 51.5797364,41.449253 L51.5797364,41.714131 C51.5797364,41.8506267 51.5112398,41.9193518 51.375198,41.9193518 L50.6065141,41.9193518 C50.4699966,41.9193518 50.4019757,41.8506267 50.4019757,41.714131 L50.4019757,41.5575905 C50.4019757,41.2120559 50.3277711,40.9648365 50.1798375,40.8164094 C50.0314282,40.667505 49.7850308,40.5930528 49.4406451,40.5930528 L48.683853,40.5930528 C48.3389917,40.5930528 48.0925943,40.671323 47.9446607,40.8283408 C47.7962514,40.9848813 47.7225225,41.2526228 47.7225225,41.6301336 L47.7225225,42.0038264 C47.7225225,42.3655876 47.9827143,42.6104208 48.5035738,42.7392804 C48.7357011,42.7955968 48.990185,42.8437998 49.2665497,42.8838894 C49.5429143,42.9244563 49.8211817,42.9841135 50.1018275,43.0642928 C50.3819975,43.1449494 50.6379084,43.2513778 50.8705114,43.3840554 C51.1031144,43.5167331 51.29148,43.7181358 51.4356082,43.9868318 C51.5797364,44.2564824 51.6515627,44.5838811 51.6515627,44.9699826 L51.6515627,45.4400813 C51.6515627,46.026631 51.4855536,46.4867073 51.1530598,46.8203104 C50.8205659,47.1539135 50.3615437,47.3204764 49.7769444,47.3204764 L48.4312718,47.3204764 C47.8461968,47.3204764 47.3857476,47.1539135 47.0494484,46.8203104 C46.7131492,46.4867073 46.5447617,46.026631 46.5447617,45.4400813" id="Fill-93" fill="#000000" mask="url(#mask-2)"></path>
                    <path d="M54.3192193,43.968696 L56.4702024,43.968696 C56.550115,43.968696 56.5900714,43.9286064 56.5900714,43.8484271 L56.5900714,43.0767015 C56.5900714,42.7712566 56.5220505,42.5479001 56.3860086,42.4075863 C56.2499668,42.2672726 56.0292556,42.1966384 55.725302,42.1966384 L55.0641197,42.1966384 C54.7596904,42.1966384 54.5394549,42.2672726 54.403413,42.4075863 C54.2668955,42.5479001 54.1988746,42.7712566 54.1988746,43.0767015 L54.1988746,43.8484271 C54.1988746,43.9286064 54.2393066,43.968696 54.3192193,43.968696 M57.4914674,47.3204764 L54.8957322,47.3204764 C54.3030465,47.3204764 53.8444999,47.1562998 53.5200925,46.8260375 C53.195685,46.4967297 53.0334813,46.0385624 53.0334813,45.4515355 L53.0334813,43.0409072 C53.0334813,42.4457669 53.195685,41.9856906 53.5200925,41.6602009 C53.8444999,41.3342339 54.3030465,41.1719663 54.8957322,41.1719663 L55.881322,41.1719663 C56.4740077,41.1719663 56.9349327,41.3342339 57.2631455,41.6602009 C57.5913583,41.9856906 57.7559404,42.4457669 57.7559404,43.0409072 L57.7559404,44.5719497 C57.7559404,44.7160815 57.6836384,44.7891019 57.5395102,44.7891019 L54.3192193,44.7891019 C54.2307446,44.7891019 54.1869828,44.8291916 54.1869828,44.9093708 L54.1869828,45.4281499 C54.1869828,46.0146995 54.4790447,46.3077357 55.0641197,46.3077357 L57.4914674,46.3077357 C57.6355957,46.3077357 57.7078976,46.3802789 57.7078976,46.5248879 L57.7078976,47.1276643 C57.7078976,47.2565239 57.6355957,47.3204764 57.4914674,47.3204764" id="Fill-94" fill="#000000" mask="url(#mask-2)"></path>
                    <path d="M59.1377163,47.1155897 L59.1377163,41.3770439 C59.1377163,41.240071 59.2019318,41.1718231 59.3298872,41.1718231 L60.0990468,41.1718231 C60.2350886,41.1718231 60.3035852,41.240071 60.3035852,41.3770439 L60.3035852,47.1155897 C60.3035852,47.1962463 60.2893151,47.2501764 60.2612505,47.2783346 C60.233186,47.3064928 60.1832405,47.3208105 60.1109386,47.3208105 L59.3422547,47.3208105 C59.2057372,47.3208105 59.1377163,47.2525627 59.1377163,47.1155897 M59.1377163,40.147151 L59.1377163,39.0499357 C59.1377163,38.9215534 59.2019318,38.8571236 59.3298872,38.8571236 L60.1109386,38.8571236 C60.238894,38.8571236 60.3035852,38.9215534 60.3035852,39.0499357 L60.3035852,40.147151 C60.3035852,40.2841239 60.238894,40.3518945 60.1109386,40.3518945 L59.3298872,40.3518945 C59.2019318,40.3518945 59.1377163,40.2841239 59.1377163,40.147151" id="Fill-95" fill="#000000" mask="url(#mask-2)"></path>
                    <path d="M62.8385297,47.3206673 L62.0817376,47.3206673 C61.9452201,47.3206673 61.8771991,47.2524195 61.8771991,47.1154465 L61.8771991,41.3769007 C61.8771991,41.240405 61.9452201,41.1716799 62.0817376,41.1716799 L62.8385297,41.1716799 C62.9745715,41.1716799 63.0430681,41.240405 63.0430681,41.3769007 L63.0430681,41.8107279 L63.0911109,41.8107279 C63.2832818,41.3845369 63.687602,41.1716799 64.3045469,41.1716799 L64.8334928,41.1716799 C65.4180921,41.1716799 65.8666496,41.3325158 66.1791653,41.6541874 C66.4916809,41.9758591 66.6477009,42.4378445 66.6477009,43.0406208 L66.6477009,47.1154465 C66.6477009,47.2524195 66.575399,47.3206673 66.4317464,47.3206673 L65.6744786,47.3206673 C65.5379611,47.3206673 65.4704159,47.2524195 65.4704159,47.1154465 L65.4704159,43.0888239 C65.4704159,42.4941609 65.1774027,42.1968293 64.5928034,42.1968293 L64.0281822,42.1968293 C63.3712809,42.1968293 63.0430681,42.5380686 63.0430681,43.2215015 L63.0430681,47.1154465 C63.0430681,47.2524195 62.9745715,47.3206673 62.8385297,47.3206673" id="Fill-96" fill="#000000" mask="url(#mask-2)"></path>
                    <path d="M69.2554706,43.968696 L71.4064536,43.968696 C71.4863663,43.968696 71.5263227,43.9286064 71.5263227,43.8484271 L71.5263227,43.0767015 C71.5263227,42.7712566 71.4583017,42.5479001 71.3222599,42.4075863 C71.1862181,42.2672726 70.9655069,42.1966384 70.6615533,42.1966384 L70.0003709,42.1966384 C69.6959417,42.1966384 69.4757061,42.2672726 69.3396643,42.4075863 C69.2031468,42.5479001 69.1351259,42.7712566 69.1351259,43.0767015 L69.1351259,43.8484271 C69.1351259,43.9286064 69.1755579,43.968696 69.2554706,43.968696 M72.4277187,47.3204764 L69.8319835,47.3204764 C69.2392978,47.3204764 68.7807512,47.1562998 68.4563438,46.8260375 C68.1319363,46.4967297 67.9697326,46.0385624 67.9697326,45.4515355 L67.9697326,43.0409072 C67.9697326,42.4457669 68.1319363,41.9856906 68.4563438,41.6602009 C68.7807512,41.3342339 69.2392978,41.1719663 69.8319835,41.1719663 L70.8175733,41.1719663 C71.410259,41.1719663 71.8711839,41.3342339 72.1993967,41.6602009 C72.5276096,41.9856906 72.6921916,42.4457669 72.6921916,43.0409072 L72.6921916,44.5719497 C72.6921916,44.7160815 72.6198897,44.7891019 72.4757614,44.7891019 L69.2554706,44.7891019 C69.1669958,44.7891019 69.1232341,44.8291916 69.1232341,44.9093708 L69.1232341,45.4281499 C69.1232341,46.0146995 69.4152959,46.3077357 70.0003709,46.3077357 L72.4277187,46.3077357 C72.5718469,46.3077357 72.6441489,46.3802789 72.6441489,46.5248879 L72.6441489,47.1276643 C72.6441489,47.2565239 72.5718469,47.3204764 72.4277187,47.3204764" id="Fill-97" fill="#000000" mask="url(#mask-2)"></path>
                    <path d="M78.0391112,43.968696 L80.1900942,43.968696 C80.2700069,43.968696 80.3099633,43.9286064 80.3099633,43.8484271 L80.3099633,43.0767015 C80.3099633,42.7712566 80.2419424,42.5479001 80.1059005,42.4075863 C79.9698587,42.2672726 79.7491475,42.1966384 79.4451939,42.1966384 L78.7840116,42.1966384 C78.4795823,42.1966384 78.2593467,42.2672726 78.1233049,42.4075863 C77.9867874,42.5479001 77.9187665,42.7712566 77.9187665,43.0767015 L77.9187665,43.8484271 C77.9187665,43.9286064 77.9591985,43.968696 78.0391112,43.968696 M81.2113593,47.3204764 L78.6156241,47.3204764 C78.0229384,47.3204764 77.5643918,47.1562998 77.2399844,46.8260375 C76.9155769,46.4967297 76.7533732,46.0385624 76.7533732,45.4515355 L76.7533732,43.0409072 C76.7533732,42.4457669 76.9155769,41.9856906 77.2399844,41.6602009 C77.5643918,41.3342339 78.0229384,41.1719663 78.6156241,41.1719663 L79.6012139,41.1719663 C80.1938996,41.1719663 80.6548246,41.3342339 80.9830374,41.6602009 C81.3112502,41.9856906 81.4758322,42.4457669 81.4758322,43.0409072 L81.4758322,44.5719497 C81.4758322,44.7160815 81.4035303,44.7891019 81.2594021,44.7891019 L78.0391112,44.7891019 C77.9506364,44.7891019 77.9068747,44.8291916 77.9068747,44.9093708 L77.9068747,45.4281499 C77.9068747,46.0146995 78.1989366,46.3077357 78.7840116,46.3077357 L81.2113593,46.3077357 C81.3554875,46.3077357 81.4277895,46.3802789 81.4277895,46.5248879 L81.4277895,47.1276643 C81.4277895,47.2565239 81.3554875,47.3204764 81.2113593,47.3204764" id="Fill-98" fill="#000000" mask="url(#mask-2)"></path>
                    <path d="M82.9776674,42.1966862 L82.4011545,42.1966862 C82.3207662,42.1966862 82.2665397,42.1828457 82.2389508,42.1542102 C82.2104106,42.1265293 82.1966161,42.07594 82.1966161,42.0038741 L82.1966161,41.3767576 C82.1966161,41.2402619 82.264637,41.172014 82.4011545,41.172014 L82.9776674,41.172014 C83.0575801,41.172014 83.0980121,41.1319244 83.0980121,41.0512678 L83.0980121,39.9664612 C83.0980121,39.8299656 83.1698384,39.7612405 83.3144423,39.7612405 L84.0712345,39.7612405 C84.2072763,39.7612405 84.2757729,39.8299656 84.2757729,39.9664612 L84.2757729,41.0512678 C84.2757729,41.1319244 84.3195346,41.172014 84.4075337,41.172014 L85.5253599,41.172014 C85.6694881,41.172014 85.7417901,41.2402619 85.7417901,41.3767576 L85.7417901,42.0038741 C85.7417901,42.1322564 85.6694881,42.1966862 85.5253599,42.1966862 L84.4075337,42.1966862 C84.3195346,42.1966862 84.2757729,42.2367758 84.2757729,42.3169551 L84.2757729,45.4157889 C84.2757729,46.0028158 84.5759211,46.295852 85.1766932,46.295852 L85.6452289,46.295852 C85.7898328,46.295852 85.8616591,46.3640999 85.8616591,46.5010728 L85.8616591,47.1277121 C85.8616591,47.2565716 85.7898328,47.3205242 85.6452289,47.3205242 L84.996414,47.3205242 C84.4037283,47.3205242 83.938998,47.1596883 83.6026988,46.8384939 C83.2659239,46.5172996 83.0980121,46.0629503 83.0980121,45.4759234 L83.0980121,42.3169551 C83.0980121,42.2367758 83.0575801,42.1966862 82.9776674,42.1966862" id="Fill-99" fill="#000000" mask="url(#mask-2)"></path>
                    <path d="M92.5549647,47.3206673 L91.7858051,47.3206673 C91.6497633,47.3206673 91.5817424,47.2524195 91.5817424,47.1154465 L91.5817424,44.4509172 L89.3341981,39.7852465 C89.3023282,39.721294 89.3023282,39.6687957 89.3341981,39.628706 C89.3665438,39.5886164 89.4107811,39.5680943 89.4664346,39.5680943 L90.4277652,39.5680943 C90.531937,39.5680943 90.6123254,39.6368194 90.6684545,39.7733151 L92.1463635,43.0888239 L92.2181898,43.0888239 L93.6723152,39.7733151 C93.720358,39.6368194 93.8002707,39.5680943 93.9125289,39.5680943 L94.8738595,39.5680943 C94.938075,39.5680943 94.9842151,39.5886164 95.0122797,39.628706 C95.0403443,39.6687957 95.0379659,39.721294 95.006096,39.7852465 L92.7590274,44.4509172 L92.7590274,47.1154465 C92.7590274,47.2524195 92.6910065,47.3206673 92.5549647,47.3206673" id="Fill-100" fill="#000000" mask="url(#mask-2)"></path>
                    <path d="M95.5950239,41.1717754 L96.3998588,41.1717754 C96.5282899,41.1717754 96.6043972,41.2405005 96.6281807,41.3769962 L97.8782434,46.2235475 L97.9624371,46.2235475 L99.1877649,41.3769962 C99.2201105,41.2405005 99.3038286,41.1717754 99.4403461,41.1717754 L100.233289,41.1717754 C100.377417,41.1717754 100.42546,41.2405005 100.377417,41.3769962 L98.7553802,47.1036106 C98.7230346,47.2482196 98.6350355,47.3207628 98.4909073,47.3207628 L97.3374058,47.3207628 C97.1932776,47.3207628 97.1048028,47.2482196 97.0729329,47.1036106 L95.4508957,41.3769962 C95.4185501,41.2405005 95.4665928,41.1717754 95.5950239,41.1717754" id="Fill-101" fill="#000000" mask="url(#mask-2)"></path>
                    <path d="M102.528258,43.968696 L104.679241,43.968696 C104.759154,43.968696 104.79911,43.9286064 104.79911,43.8484271 L104.79911,43.0767015 C104.79911,42.7712566 104.731089,42.5479001 104.595047,42.4075863 C104.459005,42.2672726 104.238294,42.1966384 103.93434,42.1966384 L103.273158,42.1966384 C102.968729,42.1966384 102.748493,42.2672726 102.612452,42.4075863 C102.475934,42.5479001 102.407913,42.7712566 102.407913,43.0767015 L102.407913,43.8484271 C102.407913,43.9286064 102.448345,43.968696 102.528258,43.968696 M105.700506,47.3204764 L103.104771,47.3204764 C102.512085,47.3204764 102.053538,47.1562998 101.729131,46.8260375 C101.404724,46.4967297 101.24252,46.0385624 101.24252,45.4515355 L101.24252,43.0409072 C101.24252,42.4457669 101.404724,41.9856906 101.729131,41.6602009 C102.053538,41.3342339 102.512085,41.1719663 103.104771,41.1719663 L104.09036,41.1719663 C104.683046,41.1719663 105.143971,41.3342339 105.472184,41.6602009 C105.800397,41.9856906 105.964979,42.4457669 105.964979,43.0409072 L105.964979,44.5719497 C105.964979,44.7160815 105.892677,44.7891019 105.748549,44.7891019 L102.528258,44.7891019 C102.439783,44.7891019 102.396021,44.8291916 102.396021,44.9093708 L102.396021,45.4281499 C102.396021,46.0146995 102.688083,46.3077357 103.273158,46.3077357 L105.700506,46.3077357 C105.844634,46.3077357 105.916936,46.3802789 105.916936,46.5248879 L105.916936,47.1276643 C105.916936,47.2565239 105.844634,47.3204764 105.700506,47.3204764" id="Fill-102" fill="#000000" mask="url(#mask-2)"></path>
                    <path d="M108.308085,47.3206673 L107.551293,47.3206673 C107.414776,47.3206673 107.346755,47.2524195 107.346755,47.1154465 L107.346755,39.0497925 C107.346755,38.9132968 107.414776,38.845049 107.551293,38.845049 L108.308085,38.845049 C108.444127,38.845049 108.512624,38.9132968 108.512624,39.0497925 L108.512624,47.1154465 C108.512624,47.2524195 108.444127,47.3206673 108.308085,47.3206673" id="Fill-103" fill="#000000" mask="url(#mask-2)"></path>
                    <path d="M110.14641,47.1155897 L110.14641,41.3770439 C110.14641,41.240071 110.210626,41.1718231 110.338581,41.1718231 L111.107741,41.1718231 C111.243782,41.1718231 111.312279,41.240071 111.312279,41.3770439 L111.312279,47.1155897 C111.312279,47.1962463 111.298009,47.2501764 111.269944,47.2783346 C111.24188,47.3064928 111.191934,47.3208105 111.119632,47.3208105 L110.350948,47.3208105 C110.214431,47.3208105 110.14641,47.2525627 110.14641,47.1155897 M110.14641,40.147151 L110.14641,39.0499357 C110.14641,38.9215534 110.210626,38.8571236 110.338581,38.8571236 L111.119632,38.8571236 C111.247588,38.8571236 111.312279,38.9215534 111.312279,39.0499357 L111.312279,40.147151 C111.312279,40.2841239 111.247588,40.3518945 111.119632,40.3518945 L110.338581,40.3518945 C110.210626,40.3518945 110.14641,40.2841239 110.14641,40.147151" id="Fill-104" fill="#000000" mask="url(#mask-2)"></path>
                    <path d="M113.847271,47.3206673 L113.090479,47.3206673 C112.953961,47.3206673 112.88594,47.2524195 112.88594,47.1154465 L112.88594,41.3769007 C112.88594,41.240405 112.953961,41.1716799 113.090479,41.1716799 L113.847271,41.1716799 C113.983313,41.1716799 114.051809,41.240405 114.051809,41.3769007 L114.051809,41.8107279 L114.099852,41.8107279 C114.292023,41.3845369 114.696343,41.1716799 115.313288,41.1716799 L115.842234,41.1716799 C116.426833,41.1716799 116.875391,41.3325158 117.187907,41.6541874 C117.500422,41.9758591 117.656442,42.4378445 117.656442,43.0406208 L117.656442,47.1154465 C117.656442,47.2524195 117.58414,47.3206673 117.440488,47.3206673 L116.68322,47.3206673 C116.546702,47.3206673 116.479157,47.2524195 116.479157,47.1154465 L116.479157,43.0888239 C116.479157,42.4941609 116.186144,42.1968293 115.601545,42.1968293 L115.036923,42.1968293 C114.380022,42.1968293 114.051809,42.5380686 114.051809,43.2215015 L114.051809,47.1154465 C114.051809,47.2524195 113.983313,47.3206673 113.847271,47.3206673" id="Fill-105" fill="#000000" mask="url(#mask-2)"></path>
                    <path d="M120.264164,43.968696 L122.415147,43.968696 C122.49506,43.968696 122.535016,43.9286064 122.535016,43.8484271 L122.535016,43.0767015 C122.535016,42.7712566 122.466995,42.5479001 122.330954,42.4075863 C122.194912,42.2672726 121.974201,42.1966384 121.670247,42.1966384 L121.009065,42.1966384 C120.704635,42.1966384 120.4844,42.2672726 120.348358,42.4075863 C120.211841,42.5479001 120.14382,42.7712566 120.14382,43.0767015 L120.14382,43.8484271 C120.14382,43.9286064 120.184252,43.968696 120.264164,43.968696 M123.436412,47.3204764 L120.840677,47.3204764 C120.247991,47.3204764 119.789445,47.1562998 119.465037,46.8260375 C119.14063,46.4967297 118.978426,46.0385624 118.978426,45.4515355 L118.978426,43.0409072 C118.978426,42.4457669 119.14063,41.9856906 119.465037,41.6602009 C119.789445,41.3342339 120.247991,41.1719663 120.840677,41.1719663 L121.826267,41.1719663 C122.418953,41.1719663 122.879878,41.3342339 123.20809,41.6602009 C123.536303,41.9856906 123.700885,42.4457669 123.700885,43.0409072 L123.700885,44.5719497 C123.700885,44.7160815 123.628583,44.7891019 123.484455,44.7891019 L120.264164,44.7891019 C120.17569,44.7891019 120.131928,44.8291916 120.131928,44.9093708 L120.131928,45.4281499 C120.131928,46.0146995 120.42399,46.3077357 121.009065,46.3077357 L123.436412,46.3077357 C123.580541,46.3077357 123.652843,46.3802789 123.652843,46.5248879 L123.652843,47.1276643 C123.652843,47.2565239 123.580541,47.3204764 123.436412,47.3204764" id="Fill-106" fill="#000000" mask="url(#mask-2)"></path>
                    <path d="M127.20948,47.3206673 L124.998563,47.3206673 C124.862045,47.3206673 124.794024,47.2524195 124.794024,47.1154465 L124.794024,46.5250789 C124.794024,46.3962193 124.862045,46.3322668 124.998563,46.3322668 L127.017309,46.3322668 C127.537693,46.3322668 127.798361,46.1513861 127.798361,45.7896248 L127.798361,45.6445385 C127.798361,45.3233441 127.609995,45.0780337 127.233739,44.9090845 L125.923742,44.2824452 C125.515141,44.0891559 125.218798,43.876299 125.034714,43.6433972 C124.850153,43.4104955 124.758349,43.1050506 124.758349,42.7270626 C124.758349,41.6899817 125.331057,41.1716799 126.476472,41.1716799 L128.471435,41.1716799 C128.59939,41.1716799 128.663606,41.240405 128.663606,41.3769007 L128.663606,41.9672684 C128.663606,42.1042414 128.59939,42.1724892 128.471435,42.1724892 L126.716685,42.1724892 C126.476472,42.1724892 126.292387,42.2149651 126.163956,42.2994397 C126.036001,42.3834371 125.971785,42.4941609 125.971785,42.6306565 L125.971785,42.7633342 C125.971785,43.020576 126.176323,43.2453644 126.584925,43.4381765 L127.906338,44.113496 C128.323025,44.298672 128.609379,44.5177332 128.765399,44.7706798 C128.921895,45.0241036 128.999905,45.3515023 128.999905,45.7533533 C128.999905,46.7980702 128.402938,47.3206673 127.20948,47.3206673" id="Fill-107" fill="#000000" mask="url(#mask-2)"></path>
                    <path d="M47.6382336,58.7072709 L46.8933332,58.7072709 C46.7568157,58.7072709 46.6887948,58.6390231 46.6887948,58.5020501 L46.6887948,51.1599187 C46.6887948,51.0229457 46.7568157,50.9551751 46.8933332,50.9551751 L47.5664073,50.9551751 C47.6943627,50.9551751 47.7823618,50.9995601 47.8304046,51.0873755 L50.7386554,56.3319597 L50.7866982,56.3319597 L50.7866982,51.1599187 C50.7866982,51.0229457 50.8547191,50.9551751 50.9907609,50.9551751 L51.7356613,50.9551751 C51.8717031,50.9551751 51.9401997,51.0229457 51.9401997,51.1599187 L51.9401997,58.5020501 C51.9401997,58.6390231 51.8717031,58.7072709 51.7356613,58.7072709 L51.0868464,58.7072709 C50.9584153,58.7072709 50.8547191,58.6428411 50.7743307,58.5144588 L47.8903391,53.3300091 L47.8422963,53.3300091 L47.8422963,58.5020501 C47.8422963,58.6390231 47.7742754,58.7072709 47.6382336,58.7072709" id="Fill-108" fill="#000000" mask="url(#mask-2)"></path>
                    <path d="M55.8454089,58.7072709 L55.3045712,58.7072709 C54.7275826,58.7072709 54.2852089,58.5445261 53.9769742,58.2190364 C53.6682639,57.8935466 53.5141466,57.4334703 53.5141466,56.83833 L53.5141466,52.7635043 C53.5141466,52.6270086 53.5821675,52.5582835 53.7182093,52.5582835 L54.4754771,52.5582835 C54.611519,52.5582835 54.6795399,52.6270086 54.6795399,52.7635043 L54.6795399,56.790127 C54.6795399,57.38479 54.968272,57.6825988 55.544785,57.6825988 L56.1217736,57.6825988 C56.7781992,57.6825988 57.1068876,57.3408823 57.1068876,56.6574494 L57.1068876,52.7635043 C57.1068876,52.6270086 57.1749086,52.5582835 57.3114261,52.5582835 L58.0682182,52.5582835 C58.2128221,52.5582835 58.2846484,52.6270086 58.2846484,52.7635043 L58.2846484,58.5020501 C58.2846484,58.6390231 58.2128221,58.7072709 58.0682182,58.7072709 L57.3114261,58.7072709 C57.1749086,58.7072709 57.1068876,58.6390231 57.1068876,58.5020501 L57.1068876,58.0682229 L57.0588449,58.0682229 C56.8666739,58.494414 56.4618781,58.7072709 55.8454089,58.7072709" id="Fill-109" fill="#000000" mask="url(#mask-2)"></path>
                    <path d="M60.7479568,58.7072709 L59.9911647,58.7072709 C59.8546472,58.7072709 59.7866263,58.6390231 59.7866263,58.5020501 L59.7866263,52.7635043 C59.7866263,52.6270086 59.8546472,52.5582835 59.9911647,52.5582835 L60.7479568,52.5582835 C60.8839987,52.5582835 60.9524952,52.6270086 60.9524952,52.7635043 L60.9524952,53.1973315 L61.000538,53.1973315 C61.2326653,52.7711404 61.6574393,52.5582835 62.2739085,52.5582835 L62.6706179,52.5582835 C63.3674756,52.5582835 63.8640758,52.8236388 64.1608943,53.353872 C64.2888498,53.0971074 64.4848261,52.9 64.7497747,52.7635043 C65.013772,52.6270086 65.2982231,52.5582835 65.6026523,52.5582835 L65.9869943,52.5582835 C66.5720693,52.5582835 67.0187241,52.7210284 67.3269587,53.0469954 C67.6351934,53.3720078 67.7897864,53.8325614 67.7897864,54.4272244 L67.7897864,58.5020501 C67.7897864,58.6390231 67.7217654,58.7072709 67.5852479,58.7072709 L66.8160884,58.7072709 C66.6800465,58.7072709 66.6120256,58.6390231 66.6120256,58.5020501 L66.6120256,54.4754275 C66.6120256,53.8807644 66.3237692,53.5834329 65.7467806,53.5834329 L65.3981139,53.5834329 C64.7331262,53.5834329 64.4011081,53.9327855 64.4011081,54.6324452 L64.4011081,58.5020501 C64.4011081,58.6390231 64.3288061,58.7072709 64.1846779,58.7072709 L63.4278857,58.7072709 C63.2913682,58.7072709 63.2233473,58.6390231 63.2233473,58.5020501 L63.2233473,54.4754275 C63.2233473,53.8807644 62.9350909,53.5834329 62.3581023,53.5834329 L61.9376093,53.5834329 C61.280708,53.5834329 60.9524952,53.9246721 60.9524952,54.6081051 L60.9524952,58.5020501 C60.9524952,58.6390231 60.8839987,58.7072709 60.7479568,58.7072709" id="Fill-110" fill="#000000" mask="url(#mask-2)"></path>
                    <path d="M71.9592306,50.231748 L72.8844102,50.231748 C72.9567121,50.231748 73.0023765,50.2494065 73.0228304,50.2856781 C73.0423329,50.3219497 73.0285384,50.372539 72.9804957,50.4364915 L71.9711224,51.6420443 C71.8992961,51.7384504 71.8027349,51.7871306 71.6828659,51.7871306 L71.1177691,51.7871306 C70.9817272,51.7871306 70.9498573,51.7184055 71.0216836,51.5819099 L71.6467149,50.4240828 C71.7109305,50.2961778 71.8151024,50.231748 71.9592306,50.231748 M70.4090197,55.355586 L72.5600027,55.355586 C72.6399154,55.355586 72.6803474,55.3154963 72.6803474,55.2348398 L72.6803474,54.4631142 C72.6803474,54.1581466 72.6123265,53.9352673 72.475809,53.7944763 C72.3397672,53.6536853 72.119056,53.5830511 71.8151024,53.5830511 L71.1543957,53.5830511 C70.8494908,53.5830511 70.6292552,53.6536853 70.4932134,53.7944763 C70.3566959,53.9352673 70.288675,54.1581466 70.288675,54.4631142 L70.288675,55.2348398 C70.288675,55.3154963 70.329107,55.355586 70.4090197,55.355586 M73.5812678,58.7073664 L70.9860083,58.7073664 C70.3928469,58.7073664 69.9343003,58.5427125 69.6098928,58.2129275 C69.2854854,57.8831424 69.1232817,57.4249751 69.1232817,56.8384255 L69.1232817,54.4273199 C69.1232817,53.8326569 69.2854854,53.3721033 69.6098928,53.0466135 C69.9343003,52.7211238 70.3928469,52.558379 70.9860083,52.558379 L71.9711224,52.558379 C72.5638081,52.558379 73.024733,52.7211238 73.3529458,53.0466135 C73.6816343,53.3721033 73.8457407,53.8326569 73.8457407,54.4273199 L73.8457407,55.9583624 C73.8457407,56.1029714 73.7734388,56.1755146 73.6293105,56.1755146 L70.4090197,56.1755146 C70.3210206,56.1755146 70.2767832,56.2156042 70.2767832,56.2957835 L70.2767832,56.8145626 C70.2767832,57.4011122 70.5693207,57.6946257 71.1543957,57.6946257 L73.5812678,57.6946257 C73.725396,57.6946257 73.797698,57.7666916 73.797698,57.9117779 L73.797698,58.514077 C73.797698,58.6429366 73.725396,58.7073664 73.5812678,58.7073664" id="Fill-111" fill="#000000" mask="url(#mask-2)"></path>
                    <path d="M76.12877,58.7072709 L75.3719778,58.7072709 C75.2354603,58.7072709 75.1674394,58.6390231 75.1674394,58.5020501 L75.1674394,52.7635043 C75.1674394,52.6270086 75.2354603,52.5582835 75.3719778,52.5582835 L76.12877,52.5582835 C76.2648118,52.5582835 76.3333084,52.6270086 76.3333084,52.7635043 L76.3333084,53.2216716 L76.3813511,53.2216716 C76.4612638,53.0207462 76.6153811,52.8599104 76.8437031,52.7391642 C77.072025,52.6188953 77.3265089,52.5582835 77.6066789,52.5582835 L78.0514311,52.5582835 C78.1874729,52.5582835 78.2559695,52.6270086 78.2559695,52.7635043 L78.2559695,53.3901436 C78.2559695,53.5433433 78.1874729,53.6072958 78.0514311,53.5834329 L77.3303142,53.5834329 C76.6653266,53.5834329 76.3333084,53.9490123 76.3333084,54.680171 L76.3333084,58.5020501 C76.3333084,58.6390231 76.2648118,58.7072709 76.12877,58.7072709" id="Fill-112" fill="#000000" mask="url(#mask-2)"></path>
                    <path d="M79.2529278,58.5021933 L79.2529278,52.7636475 C79.2529278,52.6266746 79.3171433,52.5584267 79.4450987,52.5584267 L80.2142583,52.5584267 C80.3503002,52.5584267 80.4187967,52.6266746 80.4187967,52.7636475 L80.4187967,58.5021933 C80.4187967,58.5828499 80.4045266,58.63678 80.376462,58.6649382 C80.3483975,58.6930964 80.298452,58.7074141 80.2261501,58.7074141 L79.4574662,58.7074141 C79.3209487,58.7074141 79.2529278,58.6391663 79.2529278,58.5021933 M79.2529278,51.5332773 L79.2529278,50.4365393 C79.2529278,50.308157 79.3171433,50.2432499 79.4450987,50.2432499 L80.2261501,50.2432499 C80.3541055,50.2432499 80.4187967,50.308157 80.4187967,50.4365393 L80.4187967,51.5332773 C80.4187967,51.6707275 80.3541055,51.7384981 80.2261501,51.7384981 L79.4450987,51.7384981 C79.3171433,51.7384981 79.2529278,51.6707275 79.2529278,51.5332773" id="Fill-113" fill="#000000" mask="url(#mask-2)"></path>
                    <path d="M85.4651875,56.6337297 L85.4651875,53.703845 C85.4651875,53.6231885 85.4209502,53.5830989 85.3329511,53.5830989 L83.9030849,53.5830989 C83.3260963,53.5830989 83.0378398,53.8804304 83.0378398,54.4755706 L83.0378398,56.7902702 C83.0378398,57.3849332 83.3260963,57.6822647 83.9030849,57.6822647 L84.4558142,57.6822647 C85.1288883,57.6822647 85.4651875,57.3329121 85.4651875,56.6337297 M84.1794495,58.7074141 L83.7346974,58.7074141 C83.1420117,58.7074141 82.6834651,58.5427602 82.3590577,58.2129752 C82.0346502,57.8831902 81.8724465,57.4250228 81.8724465,56.8384732 L81.8724465,54.4273676 C81.8724465,53.8327046 82.0346502,53.372151 82.3590577,53.0466613 C82.6834651,52.7211716 83.1420117,52.5584267 83.7346974,52.5584267 L86.4265181,52.5584267 C86.5706463,52.5584267 86.6429483,52.6266746 86.6429483,52.7636475 L86.6429483,60.2026623 C86.6429483,60.339158 86.5706463,60.4069285 86.4265181,60.4069285 L85.669726,60.4069285 C85.5332085,60.4069285 85.4651875,60.339158 85.4651875,60.2026623 L85.4651875,58.044026 L85.4171448,58.044026 C85.2007146,58.4864438 84.7883081,58.7074141 84.1794495,58.7074141" id="Fill-114" fill="#000000" mask="url(#mask-2)"></path>
                    <path d="M90.4160637,58.7072709 L89.875226,58.7072709 C89.2982374,58.7072709 88.8558637,58.5445261 88.547629,58.2190364 C88.2389187,57.8935466 88.0848014,57.4334703 88.0848014,56.83833 L88.0848014,52.7635043 C88.0848014,52.6270086 88.1528223,52.5582835 88.2888641,52.5582835 L89.0461319,52.5582835 C89.1821738,52.5582835 89.2501947,52.6270086 89.2501947,52.7635043 L89.2501947,56.790127 C89.2501947,57.38479 89.5389268,57.6825988 90.1154398,57.6825988 L90.6924284,57.6825988 C91.348854,57.6825988 91.6775424,57.3408823 91.6775424,56.6574494 L91.6775424,52.7635043 C91.6775424,52.6270086 91.7455634,52.5582835 91.8820809,52.5582835 L92.638873,52.5582835 C92.7834769,52.5582835 92.8553032,52.6270086 92.8553032,52.7635043 L92.8553032,58.5020501 C92.8553032,58.6390231 92.7834769,58.7072709 92.638873,58.7072709 L91.8820809,58.7072709 C91.7455634,58.7072709 91.6775424,58.6390231 91.6775424,58.5020501 L91.6775424,58.0682229 L91.6294997,58.0682229 C91.4373287,58.494414 91.0325329,58.7072709 90.4160637,58.7072709" id="Fill-115" fill="#000000" mask="url(#mask-2)"></path>
                    <path d="M95.5228171,55.3557292 L97.6738001,55.3557292 C97.7537128,55.3557292 97.7936692,55.3156395 97.7936692,55.234983 L97.7936692,54.4632574 C97.7936692,54.1578125 97.7256482,53.9349332 97.5896064,53.7946194 C97.4535646,53.6538284 97.2328534,53.5831943 96.9288998,53.5831943 L96.2677174,53.5831943 C95.9632882,53.5831943 95.7430526,53.6538284 95.6070108,53.7946194 C95.4704933,53.9349332 95.4024724,54.1578125 95.4024724,54.4632574 L95.4024724,55.234983 C95.4024724,55.3156395 95.4429044,55.3557292 95.5228171,55.3557292 M98.6950652,58.7070323 L96.09933,58.7070323 C95.5066443,58.7070323 95.0480977,58.5428557 94.7236902,58.2125934 C94.3992828,57.8832856 94.2370791,57.4251183 94.2370791,56.8380914 L94.2370791,54.4274631 C94.2370791,53.8328 94.3992828,53.3722464 94.7236902,53.0467567 C95.0480977,52.7207898 95.5066443,52.5585222 96.09933,52.5585222 L97.0849198,52.5585222 C97.6776055,52.5585222 98.1385304,52.7207898 98.4667432,53.0467567 C98.794956,53.3722464 98.9595381,53.8328 98.9595381,54.4274631 L98.9595381,55.9585056 C98.9595381,56.1026374 98.8872362,56.1756578 98.7431079,56.1756578 L95.5228171,56.1756578 C95.4343423,56.1756578 95.3905806,56.2157474 95.3905806,56.2959267 L95.3905806,56.8147058 C95.3905806,57.4012554 95.6826424,57.6942916 96.2677174,57.6942916 L98.6950652,57.6942916 C98.8391934,57.6942916 98.9114954,57.7668347 98.9114954,57.9114438 L98.9114954,58.5142202 C98.9114954,58.6430798 98.8391934,58.7070323 98.6950652,58.7070323" id="Fill-116" fill="#000000" mask="url(#mask-2)"></path>
                    <path d="M31.0176323,9.65272659 C31.0176323,9.25135292 31.3420397,8.92634047 31.7420788,8.92634047 C32.1421179,8.92634047 32.4660496,9.25135292 32.4660496,9.65272659 C32.4660496,10.0541003 32.1421179,10.37959 31.7420788,10.37959 C31.3420397,10.37959 31.0176323,10.0541003 31.0176323,9.65272659" id="Fill-117" fill="#000000" mask="url(#mask-2)"></path>
                    <path d="M33.2463875,54.7409736 C33.2463875,54.4737093 33.4618663,54.2575116 33.7277663,54.2575116 C33.9936662,54.2575116 34.209145,54.4737093 34.209145,54.7409736 C34.209145,55.0077606 33.9936662,55.2239583 33.7277663,55.2239583 C33.4618663,55.2239583 33.2463875,55.0077606 33.2463875,54.7409736" id="Fill-118" fill="#000000" mask="url(#mask-2)"></path>
                    <path d="M9.51341465e-05,0.716984147 C9.51341465e-05,0.320860309 0.319745866,0.000143177291 0.714552575,0.000143177291 C1.10888361,0.000143177291 1.42901001,0.320860309 1.42901001,0.716984147 C1.42901001,1.11310798 1.10888361,1.43382512 0.714552575,1.43382512 C0.319745866,1.43382512 9.51341465e-05,1.11310798 9.51341465e-05,0.716984147" id="Fill-119" fill="#000000" mask="url(#mask-2)"></path>
                    <path d="M23.4073762,31.4975245 C23.4073762,31.1252635 23.7080001,30.8236367 24.079499,30.8236367 C24.4500465,30.8236367 24.751146,31.1252635 24.751146,31.4975245 C24.751146,31.8697854 24.4500465,32.1718895 24.079499,32.1718895 C23.7080001,32.1718895 23.4073762,31.8697854 23.4073762,31.4975245" id="Fill-120" fill="#000000" mask="url(#mask-2)"></path>
                    <path d="M37.0930891,27.9611886 C37.0930891,27.5698373 37.4094102,27.252461 37.7994602,27.252461 C38.1895102,27.252461 38.5058312,27.5698373 38.5058312,27.9611886 C38.5058312,28.3525398 38.1895102,28.6699162 37.7994602,28.6699162 C37.4094102,28.6699162 37.0930891,28.3525398 37.0930891,27.9611886" id="Fill-121" fill="#000000" mask="url(#mask-2)"></path>
                    <path d="M26.2165449,48.8638322 C26.2165449,48.6843833 26.3616244,48.5388186 26.5404766,48.5388186 C26.7193288,48.5383425 26.8644084,48.683906 26.8644084,48.8633549 C26.8644084,49.043281 26.7193288,49.1888446 26.5404766,49.1888446 C26.3616244,49.1888446 26.2165449,49.0437583 26.2165449,48.8638322" id="Fill-122" fill="#000000" mask="url(#mask-2)"></path>
                    <path d="M35.3982743,16.0707918 C35.3982743,15.6694182 35.7226818,15.3439285 36.1227208,15.3439285 C36.5227599,15.3439285 36.8466917,15.6694182 36.8466917,16.0707918 C36.8466917,16.4721655 36.5227599,16.7976552 36.1227208,16.7976552 C35.7226818,16.7976552 35.3982743,16.4721655 35.3982743,16.0707918" id="Fill-123" fill="#000000" mask="url(#mask-2)"></path>
                    <path d="M45.9339054,24.6425299 C45.9339054,24.2411562 46.2583128,23.9161438 46.6583519,23.9161438 C47.058391,23.9161438 47.3827984,24.2411562 47.3827984,24.6425299 C47.3827984,25.0439036 47.058391,25.3693933 46.6583519,25.3693933 C46.2583128,25.3693933 45.9339054,25.0439036 45.9339054,24.6425299" id="Fill-124" fill="#000000" mask="url(#mask-2)"></path>
                    <path d="M27.680041,65.70907 C27.680041,65.3134234 28.0001674,64.992229 28.3944984,64.992229 C28.7893052,64.992229 29.1089559,65.3134234 29.1089559,65.70907 C29.1089559,66.1051938 28.7893052,66.4259109 28.3944984,66.4259109 C28.0001674,66.4259109 27.680041,66.1051938 27.680041,65.70907" id="Fill-125" fill="#000000" mask="url(#mask-2)"></path>
                    <path d="M55.5578659,11.7815343 C55.5578659,11.3854104 55.8779923,11.0646933 56.2723233,11.0646933 C56.66713,11.0646933 56.9867808,11.3854104 56.9867808,11.7815343 C56.9867808,12.1771809 56.66713,12.497898 56.2723233,12.497898 C55.8779923,12.497898 55.5578659,12.1771809 55.5578659,11.7815343" id="Fill-126" fill="#000000" mask="url(#mask-2)"></path>
                    <path d="M11.1799746,40.7262077 C11.1799746,40.3300838 11.4996254,40.0093667 11.8944321,40.0093667 C12.2887631,40.0093667 12.6084138,40.3300838 12.6084138,40.7262077 C12.6084138,41.1218542 12.2887631,41.4430486 11.8944321,41.4430486 C11.4996254,41.4430486 11.1799746,41.1218542 11.1799746,40.7262077" id="Fill-127" fill="#000000" mask="url(#mask-2)"></path>
                    <path d="M10.877781,8.91937251 C10.877781,8.52324867 11.1974317,8.20253154 11.5922385,8.20253154 C11.9865695,8.20253154 12.3066959,8.52324867 12.3066959,8.91937251 C12.3066959,9.31549635 11.9865695,9.63621348 11.5922385,9.63621348 C11.1974317,9.63621348 10.877781,9.31549635 10.877781,8.91937251" id="Fill-128" fill="#000000" mask="url(#mask-2)"></path>
                    <path d="M4.7463377,22.3420049 C4.7463377,21.9458811 5.06598844,21.6251639 5.46079514,21.6251639 C5.85512618,21.6251639 6.17525258,21.9458811 6.17525258,22.3420049 C6.17525258,22.7381287 5.85512618,23.0588459 5.46079514,23.0588459 C5.06598844,23.0588459 4.7463377,22.7381287 4.7463377,22.3420049" id="Fill-129" fill="#000000" mask="url(#mask-2)"></path>
                    <path d="M13.9011442,16.5904299 C13.9011442,16.1943061 14.2207949,15.873589 14.6156016,15.873589 C15.0104083,15.873589 15.3300591,16.1943061 15.3300591,16.5904299 C15.3300591,16.9865538 15.0104083,17.3072709 14.6156016,17.3072709 C14.2207949,17.3072709 13.9011442,16.9865538 13.9011442,16.5904299" id="Fill-130" fill="#000000" mask="url(#mask-2)"></path>
                    <path d="M19.996389,15.9969124 C19.996389,15.6007885 20.3165154,15.2800714 20.7108464,15.2800714 C21.1056531,15.2800714 21.4253038,15.6007885 21.4253038,15.9969124 C21.4253038,16.3925589 21.1056531,16.7137533 20.7108464,16.7137533 C20.3165154,16.7137533 19.996389,16.3925589 19.996389,15.9969124" id="Fill-131" fill="#000000" mask="url(#mask-2)"></path>
                    <path d="M25.1797254,15.294055 C25.1797254,14.8979312 25.4998518,14.5772141 25.8941828,14.5772141 C26.2889895,14.5772141 26.6086402,14.8979312 26.6086402,15.294055 C26.6086402,15.6897016 26.2889895,16.010896 25.8941828,16.010896 C25.4998518,16.010896 25.1797254,15.6897016 25.1797254,15.294055" id="Fill-132" fill="#000000" mask="url(#mask-2)"></path>
                    <path d="M18.6067645,2.23332711 C18.6067645,1.83768053 18.9264152,1.51648614 19.3212219,1.51648614 C19.715553,1.51648614 20.0356794,1.83768053 20.0356794,2.23332711 C20.0356794,2.62945095 19.715553,2.95016808 19.3212219,2.95016808 C18.9264152,2.95016808 18.6067645,2.62945095 18.6067645,2.23332711" id="Fill-133" fill="#000000" mask="url(#mask-2)"></path>
                    <path d="M25.9260052,5.59861388 C25.9260052,5.2029673 26.2456559,4.88177291 26.6404626,4.88177291 C27.0352693,4.88177291 27.3549201,5.2029673 27.3549201,5.59861388 C27.3549201,5.99473772 27.0352693,6.31545485 26.6404626,6.31545485 C26.2456559,6.31545485 25.9260052,5.99473772 25.9260052,5.59861388" id="Fill-134" fill="#000000" mask="url(#mask-2)"></path>
                    <path d="M36.7716784,3.96500872 C36.7716784,3.56888488 37.0913291,3.24816775 37.4861359,3.24816775 C37.8804669,3.24816775 38.2001176,3.56888488 38.2001176,3.96500872 C38.2001176,4.3606553 37.8804669,4.68137243 37.4861359,4.68137243 C37.0913291,4.68137243 36.7716784,4.3606553 36.7716784,3.96500872" id="Fill-135" fill="#000000" mask="url(#mask-2)"></path>
                    <path d="M44.7266055,13.4474975 C44.7266055,13.0513737 45.0462562,12.7306565 45.4410629,12.7306565 C45.835394,12.7306565 46.1555204,13.0513737 46.1555204,13.4474975 C46.1555204,13.8436213 45.835394,14.1643385 45.4410629,14.1643385 C45.0462562,14.1643385 44.7266055,13.8436213 44.7266055,13.4474975" id="Fill-136" fill="#000000" mask="url(#mask-2)"></path>
                    <path d="M49.4294193,14.8946381 C49.4294193,14.4985143 49.7495457,14.1777971 50.1438768,14.1777971 C50.5386835,14.1777971 50.8583342,14.4985143 50.8583342,14.8946381 C50.8583342,15.290762 50.5386835,15.6114791 50.1438768,15.6114791 C49.7495457,15.6114791 49.4294193,15.290762 49.4294193,14.8946381" id="Fill-137" fill="#000000" mask="url(#mask-2)"></path>
                    <path d="M44.8792007,18.1844227 C44.8792007,17.7882989 45.1988514,17.4675818 45.5936581,17.4675818 C45.9884648,17.4675818 46.3081155,17.7882989 46.3081155,18.1844227 C46.3081155,18.5805466 45.9884648,18.9012637 45.5936581,18.9012637 C45.1988514,18.9012637 44.8792007,18.5805466 44.8792007,18.1844227" id="Fill-138" fill="#000000" mask="url(#mask-2)"></path>
                    <path d="M59.6542471,13.7525129 C59.6542471,13.356389 59.9738978,13.0356719 60.3687046,13.0356719 C60.7635113,13.0356719 61.083162,13.356389 61.083162,13.7525129 C61.083162,14.1486367 60.7635113,14.4693538 60.3687046,14.4693538 C59.9738978,14.4693538 59.6542471,14.1486367 59.6542471,13.7525129" id="Fill-139" fill="#000000" mask="url(#mask-2)"></path>
                    <path d="M53.8641927,16.4592318 C53.8641927,16.0635852 54.1838434,15.7423909 54.5786501,15.7423909 C54.9734568,15.7423909 55.2931076,16.0635852 55.2931076,16.4592318 C55.2931076,16.8553557 54.9734568,17.1760728 54.5786501,17.1760728 C54.1838434,17.1760728 53.8641927,16.8553557 53.8641927,16.4592318" id="Fill-140" fill="#000000" mask="url(#mask-2)"></path>
                    <path d="M55.6962861,19.3174324 C55.6962861,18.9213085 56.0164125,18.6005914 56.4107435,18.6005914 C56.8055502,18.6005914 57.125201,18.9213085 57.125201,19.3174324 C57.125201,19.7135562 56.8055502,20.0342733 56.4107435,20.0342733 C56.0164125,20.0342733 55.6962861,19.7135562 55.6962861,19.3174324" id="Fill-141" fill="#000000" mask="url(#mask-2)"></path>
                    <path d="M51.766675,22.0514027 C51.766675,21.6552789 52.0868014,21.3345618 52.4811325,21.3345618 C52.8759392,21.3345618 53.1955899,21.6552789 53.1955899,22.0514027 C53.1955899,22.4470493 52.8759392,22.7682437 52.4811325,22.7682437 C52.0868014,22.7682437 51.766675,22.4470493 51.766675,22.0514027" id="Fill-142" fill="#000000" mask="url(#mask-2)"></path>
                    <path d="M58.9693288,25.8887927 C58.9693288,25.4926689 59.2889796,25.1719518 59.6837863,25.1719518 C60.078593,25.1719518 60.3982437,25.4926689 60.3982437,25.8887927 C60.3982437,26.2849166 60.078593,26.6056337 59.6837863,26.6056337 C59.2889796,26.6056337 58.9693288,26.2849166 58.9693288,25.8887927" id="Fill-143" fill="#000000" mask="url(#mask-2)"></path>
                    <path d="M55.4449892,34.4426336 C55.4449892,34.0465098 55.7651156,33.7257927 56.1594467,33.7257927 C56.5542534,33.7257927 56.8739041,34.0465098 56.8739041,34.4426336 C56.8739041,34.8387575 56.5542534,35.1594746 56.1594467,35.1594746 C55.7651156,35.1594746 55.4449892,34.8387575 55.4449892,34.4426336" id="Fill-144" fill="#000000" mask="url(#mask-2)"></path>
                    <path d="M52.0495564,30.2183786 C52.0495564,29.8222547 52.3692071,29.5015376 52.7640138,29.5015376 C53.1583449,29.5015376 53.4784713,29.8222547 53.4784713,30.2183786 C53.4784713,30.6145024 53.1583449,30.9352195 52.7640138,30.9352195 C52.3692071,30.9352195 52.0495564,30.6145024 52.0495564,30.2183786" id="Fill-145" fill="#000000" mask="url(#mask-2)"></path>
                    <path d="M46.4950541,33.6274776 C46.4950541,33.2313538 46.8147049,32.9106366 47.2095116,32.9106366 C47.6043183,32.9106366 47.923969,33.2313538 47.923969,33.6274776 C47.923969,34.0236014 47.6043183,34.3443186 47.2095116,34.3443186 C46.8147049,34.3443186 46.4950541,34.0236014 46.4950541,33.6274776" id="Fill-146" fill="#000000" mask="url(#mask-2)"></path>
                    <path d="M41.1994594,36.8778407 C41.1994594,36.4817169 41.5191102,36.1609998 41.9139169,36.1609998 C42.3087236,36.1609998 42.6283743,36.4817169 42.6283743,36.8778407 C42.6283743,37.2739646 42.3087236,37.5946817 41.9139169,37.5946817 C41.5191102,37.5946817 41.1994594,37.2739646 41.1994594,36.8778407" id="Fill-147" fill="#000000" mask="url(#mask-2)"></path>
                    <path d="M33.1774152,43.4163658 C33.1774152,43.0202419 33.497066,42.6995248 33.8918727,42.6995248 C34.2866794,42.6995248 34.6063301,43.0202419 34.6063301,43.4163658 C34.6063301,43.8120124 34.2866794,44.1332068 33.8918727,44.1332068 C33.497066,44.1332068 33.1774152,43.8120124 33.1774152,43.4163658" id="Fill-148" fill="#000000" mask="url(#mask-2)"></path>
                    <path d="M28.8074282,50.5785234 C28.8074282,50.1828768 29.1275546,49.8616824 29.5218856,49.8616824 C29.9166924,49.8616824 30.2363431,50.1828768 30.2363431,50.5785234 C30.2363431,50.9746472 29.9166924,51.2953644 29.5218856,51.2953644 C29.1275546,51.2953644 28.8074282,50.9746472 28.8074282,50.5785234" id="Fill-149" fill="#000000" mask="url(#mask-2)"></path>
                    <path d="M25.8261143,48.8638322 C25.8261143,48.4681856 26.1457651,48.1469912 26.5405718,48.1469912 C26.9353785,48.1469912 27.2550292,48.4681856 27.2550292,48.8638322 C27.2550292,49.2594788 26.9353785,49.5806731 26.5405718,49.5806731 C26.1457651,49.5806731 25.8261143,49.2594788 25.8261143,48.8638322" id="Fill-150" fill="#000000" mask="url(#mask-2)"></path>
                    <path d="M18.6662233,54.9726345 C18.6662233,54.5769879 18.9858741,54.2557935 19.3806808,54.2557935 C19.7754875,54.2557935 20.0951382,54.5769879 20.0951382,54.9726345 C20.0951382,55.3687583 19.7754875,55.6894754 19.3806808,55.6894754 C18.9858741,55.6894754 18.6662233,55.3687583 18.6662233,54.9726345" id="Fill-151" fill="#000000" mask="url(#mask-2)"></path>
                    <path d="M33.0134515,54.7409736 C33.0134515,54.3448498 33.3331023,54.0241326 33.727909,54.0241326 C34.1227157,54.0241326 34.4423664,54.3448498 34.4423664,54.7409736 C34.4423664,55.1366202 34.1227157,55.4578146 33.727909,55.4578146 C33.3331023,55.4578146 33.0134515,55.1366202 33.0134515,54.7409736" id="Fill-152" fill="#000000" mask="url(#mask-2)"></path>
                    <path d="M16.2032954,22.4282454 C16.2032954,22.0321215 16.5229461,21.7114044 16.9177528,21.7114044 C17.3125596,21.7114044 17.6322103,22.0321215 17.6322103,22.4282454 C17.6322103,22.8238919 17.3125596,23.1450863 16.9177528,23.1450863 C16.5229461,23.1450863 16.2032954,22.8238919 16.2032954,22.4282454" id="Fill-153" fill="#000000" mask="url(#mask-2)"></path>
                    <path d="M27.7406415,20.7897722 C27.7406415,20.3936483 28.0607679,20.0729312 28.4550989,20.0729312 C28.8499056,20.0729312 29.1695563,20.3936483 29.1695563,20.7897722 C29.1695563,21.1854187 28.8499056,21.5066131 28.4550989,21.5066131 C28.0607679,21.5066131 27.7406415,21.1854187 27.7406415,20.7897722" id="Fill-154" fill="#000000" mask="url(#mask-2)"></path>
                    <path d="M31.0213425,27.27074 C31.0213425,26.8746161 31.3409932,26.553899 31.7357999,26.553899 C32.1306066,26.553899 32.4502574,26.8746161 32.4502574,27.27074 C32.4502574,27.6663865 32.1306066,27.9875809 31.7357999,27.9875809 C31.3409932,27.9875809 31.0213425,27.6663865 31.0213425,27.27074" id="Fill-155" fill="#000000" mask="url(#mask-2)"></path>
                    <path d="M32.0897465,34.0923743 C32.0897465,33.6962504 32.4093973,33.3755333 32.804204,33.3755333 C33.1990107,33.3755333 33.5186614,33.6962504 33.5186614,34.0923743 C33.5186614,34.4884981 33.1990107,34.8092152 32.804204,34.8092152 C32.4093973,34.8092152 32.0897465,34.4884981 32.0897465,34.0923743" id="Fill-156" fill="#000000" mask="url(#mask-2)"></path>
                    <path d="M43.9092605,29.7467048 C43.9092605,29.350581 44.2289112,29.0298639 44.6237179,29.0298639 C45.0185246,29.0298639 45.3381753,29.350581 45.3381753,29.7467048 C45.3381753,30.1428287 45.0185246,30.4635458 44.6237179,30.4635458 C44.2289112,30.4635458 43.9092605,30.1428287 43.9092605,29.7467048" id="Fill-157" fill="#000000" mask="url(#mask-2)"></path>
                </g>
            </g>
        </g>
    </g>
</svg>